<?xml version="1.0" encoding="utf-8"?>
<!-- Generator: Adobe Illustrator 25.0.0, SVG Export Plug-In . SVG Version: 6.00 Build 0)  -->
<svg version="1.1" id="Calque_1" xmlns="http://www.w3.org/2000/svg" xmlns:xlink="http://www.w3.org/1999/xlink" x="0px" y="0px"
	 viewBox="0 0 400 400" style="enable-background:new 0 0 400 400;" xml:space="preserve">
<style type="text/css">
	.st0{fill:none;}
	.st1{fill:#EF7916;}
	.st2{opacity:0.32;}
	.st3{opacity:0.99;fill:none;stroke:#EF7916;stroke-width:4;stroke-miterlimit:10;}
</style>
<g>
	<g>
		<g>
			<path class="st0" d="M269.3,242.5c-23-13.3-45-28.6-70.9-36.3c-10.8-3.1-6.3-19.9,4.5-16.8c26.9,8,50.3,23.7,74.7,37.7V101.5
				H119.8V400h157.8V242.5C275.2,244.3,272.4,244.3,269.3,242.5z"/>
			<path class="st1" d="M222.8,216v10.1c0,27.2-10.5,39.1-33.9,39.1c-12.9,0-25.8-7-35.3-21.6l-13.3,12.9
				c11.5,18.9,30.7,27.2,49.2,27.6c40.9,0,54.8-25.1,54.8-55.9v-0.3C237.1,223.7,230.2,219.5,222.8,216z"/>
			<path class="st1" d="M222.8,196.8c7.3,3.1,14.3,7,21.3,10.8v-92.2h-90.4v17.8h68.8v63.5H222.8z"/>
		</g>
		<polyline class="st1" points="154.4,234.5 167,269.1 156.5,279.2 143.6,244.3 		"/>
		<path class="st1" d="M173.6,118.9c-1.7-5.9-3.8-11.5-5.6-17.5l-12.2,22.7l5.6,17.5L173.6,118.9z"/>
		<polyline class="st1" points="244.1,101.8 224.9,119.3 224.9,137.8 244.1,120 		"/>
	</g>
	<g class="st2">
		<g>
			<path class="st0" d="M272.5,234.4c-25.6-11.5-50.3-25.2-78.4-30.8c-11.8-2.3-8.3-19.7,3.5-17.4c29.7,5.8,55.9,20.1,83,32.2
				c0.8,0.3,1.6,0.9,2.4,1.6l1.2-124.6l-168.4-0.1l-2.6,304.2l168.4,0.1l1.6-166.8C280.5,235.2,276.8,236.5,272.5,234.4z"/>
			<path class="st1" d="M224.8,194c7.7,2.6,15.4,5.9,22.8,9.2l0.7-93.9l-96.6-0.1l0,18.2l73.7,0.2L224.8,194z"/>
			<path class="st1" d="M224.4,212.9l0,9.3c-0.4,27.9-11.8,39.8-36.5,39.7c-13.8,0-27.5-7.1-37.7-22l-14.3,12.9
				c12,19.4,32.9,28.1,52.4,27.9c43.8,0.1,58.9-25.8,59.1-56.8l-0.1-1.1C239.5,219.2,232.1,215.8,224.4,212.9z"/>
		</g>
		<polyline class="st1" points="151.3,230.5 164.7,265.9 153.1,276.1 139.8,240.4 		"/>
		<path class="st1" d="M172.6,112.8c-2-5.9-3.9-11.8-5.9-17.7l-13.1,23.2l5.9,17.7L172.6,112.8z"/>
		<polyline class="st1" points="248.3,95 227.6,113.1 227.3,132 248.3,113.6 		"/>
	</g>
	<ellipse class="st3" cx="200" cy="190.5" rx="138.2" ry="135.2"/>
</g>
</svg>
