<?xml version="1.0" encoding="utf-8"?>
<!-- Generator: Adobe Illustrator 25.0.0, SVG Export Plug-In . SVG Version: 6.00 Build 0)  -->
<svg version="1.1" id="Calque_1" xmlns="http://www.w3.org/2000/svg" xmlns:xlink="http://www.w3.org/1999/xlink" x="0px" y="0px"
	 viewBox="0 0 380 380" style="enable-background:new 0 0 380 380;" xml:space="preserve">
<style type="text/css">
	.st0{fill:none;}
	.st1{fill:#EF7916;}
	.st2{opacity:0.32;}
	.st3{fill:none;stroke:#EF7916;stroke-width:5;stroke-miterlimit:10;}
</style>
<g id="Calque_1_1_">
	<g>
		<g>
			<path class="st0" d="M265.4,249.4c-24.7-14.2-48.2-30.6-75.8-38.8c-11.6-3.4-6.7-21.3,4.9-17.9c28.8,8.6,53.8,25.4,79.9,40.3
				V98.5H105.6v319.3h168.8V249.4C271.8,251.3,268.8,251.3,265.4,249.4z"/>
			<path class="st1" d="M215.8,221v10.8c0,29.1-11.2,41.8-36.2,41.8c-13.8,0-27.6-7.5-37.7-23.2l-14.2,13.8
				c12.3,20.2,32.9,29.1,52.7,29.5c43.7,0,58.6-26.9,58.6-59.8v-0.4C231.1,229.2,223.6,224.7,215.8,221z"/>
			<path class="st1" d="M215.8,200.5c7.8,3.4,15.3,7.5,22.8,11.6v-98.6h-96.7v19h73.6L215.8,200.5L215.8,200.5z"/>
		</g>
		<polyline class="st1" points="142.6,240.8 156,277.8 144.8,288.6 131,251.3 		"/>
		<path class="st1" d="M163.1,117.2c-1.9-6.3-4.1-12.3-6-18.7l-13.1,24.3l6,18.7L163.1,117.2z"/>
		<polyline class="st1" points="238.6,98.9 218,117.6 218,137.3 238.6,118.3 		"/>
	</g>
	<g class="st2">
		<g>
			<path class="st0" d="M268.8,240.8c-27.3-12.3-53.8-26.9-84-32.9c-12.7-2.2-9-20.9,3.7-18.7c31.7,6.3,59.8,21.7,88.9,34.4
				c0.7,0.4,1.9,1.1,2.6,1.9l1.5-133.3h-180l-2.6,325.3h180l1.9-178.5C277.4,241.6,273.7,243,268.8,240.8z"/>
			<path class="st1" d="M218,197.5c8.2,2.6,16.4,6.3,24.3,9.7l0.7-100.5H139.6v19.4h78.8L218,197.5z"/>
			<path class="st1" d="M217.6,217.7v10.1c-0.4,29.9-12.7,42.6-39.2,42.6c-14.9,0-29.5-7.5-40.3-23.5l-15.3,13.8
				c12.7,20.5,35.1,29.9,56,29.9c46.7,0,63.1-27.6,63.1-60.9v-1.1C233.7,224.4,225.9,221,217.6,217.7z"/>
		</g>
		<polyline class="st1" points="139.2,236.7 153.4,274.4 141.1,285.3 126.9,247.2 		"/>
		<path class="st1" d="M162,110.8c-2.2-6.3-4.1-12.7-6.3-19l-14.2,24.7l6.3,19L162,110.8z"/>
		<polyline class="st1" points="243,91.4 221,110.8 220.6,131 243,111.6 		"/>
	</g>
	<ellipse class="st3" cx="190" cy="189.8" rx="181.7" ry="177.6"/>
</g>
</svg>
