<?xml version="1.0" encoding="utf-8"?>
<!-- Generator: Adobe Illustrator 25.0.0, SVG Export Plug-In . SVG Version: 6.00 Build 0)  -->
<svg version="1.1" id="Calque_1" xmlns="http://www.w3.org/2000/svg" xmlns:xlink="http://www.w3.org/1999/xlink" x="0px" y="0px"
	 viewBox="0 0 380 380" style="enable-background:new 0 0 380 380;" xml:space="preserve">
<style type="text/css">
	.st0{fill:none;}
	.st1{fill:#EF7916;}
	.st2{opacity:0.32;}
	.st3{fill:none;stroke:#EF7916;stroke-width:8;stroke-miterlimit:10;}
</style>
<g id="Calque_1_1_">
	<g>
		<g>
			<path class="st0" d="M257.9,246.9c-22.2-12.8-43.4-27.6-68.2-35c-10.4-3-6-19.2,4.4-16.1c25.9,7.7,48.4,22.9,71.9,36.3v-121H114
				v287.4H266V246.9C263.6,248.6,260.9,248.6,257.9,246.9z"/>
			<path class="st1" d="M213.2,221.4v9.7c0,26.2-10.1,37.6-32.6,37.6c-12.4,0-24.9-6.7-33.9-20.8l-12.8,12.4
				c11.1,18.1,29.6,26.2,47.4,26.6c39.3,0,52.8-24.2,52.8-53.8v-0.3C227,228.8,220.2,224.8,213.2,221.4z"/>
			<path class="st1" d="M213.2,202.9c7.1,3,13.8,6.7,20.5,10.4v-88.7h-87.1v17.1h66.2L213.2,202.9L213.2,202.9z"/>
		</g>
		<polyline class="st1" points="147.3,239.2 159.4,272.5 149.3,282.2 136.9,248.6 		"/>
		<path class="st1" d="M165.8,128c-1.7-5.7-3.7-11.1-5.4-16.8L148.7,133l5.4,16.8L165.8,128z"/>
		<polyline class="st1" points="233.7,111.5 215.2,128.3 215.2,146.1 233.7,129 		"/>
	</g>
	<g class="st2">
		<g>
			<path class="st0" d="M260.9,239.2c-24.5-11.1-48.4-24.2-75.6-29.6c-11.4-2-8.1-18.8,3.4-16.8c28.6,5.7,53.8,19.5,80,30.9
				c0.7,0.3,1.7,1,2.4,1.7l1.3-120h-162L108,398.2h162l1.7-160.7C268.6,239.9,265.3,241.2,260.9,239.2z"/>
			<path class="st1" d="M215.2,200.2c7.4,2.4,14.8,5.7,21.8,8.7l0.7-90.4h-93.1V136h70.9L215.2,200.2z"/>
			<path class="st1" d="M214.9,218.4v9.1c-0.3,26.9-11.4,38.3-35.3,38.3c-13.4,0-26.6-6.7-36.3-21.2L129.5,257
				c11.4,18.5,31.6,26.9,50.4,26.9c42,0,56.8-24.9,56.8-54.8v-1C229.3,224.4,222.3,221.4,214.9,218.4z"/>
		</g>
		<polyline class="st1" points="144.3,235.5 157.1,269.5 146,279.2 133.2,244.9 		"/>
		<path class="st1" d="M164.8,122.2c-2-5.7-3.7-11.4-5.7-17.1l-12.8,22.2l5.7,17.1L164.8,122.2z"/>
		<polyline class="st1" points="237.7,104.8 217.9,122.2 217.6,140.4 237.7,122.9 		"/>
	</g>
	<ellipse class="st3" cx="190" cy="193.3" rx="163.5" ry="159.8"/>
</g>
</svg>
