<?xml version="1.0" encoding="utf-8"?>
<!-- Generator: Adobe Illustrator 25.0.0, SVG Export Plug-In . SVG Version: 6.00 Build 0)  -->
<svg version="1.1" id="Calque_1" xmlns="http://www.w3.org/2000/svg" xmlns:xlink="http://www.w3.org/1999/xlink" x="0px" y="0px"
	 viewBox="0 0 380 380" style="enable-background:new 0 0 380 380;" xml:space="preserve">
<style type="text/css">
	.st0{fill:#EF7916;}
	.st1{opacity:0.32;}
	.st2{fill:none;}
	.st3{fill:none;stroke:#EF7814;stroke-width:7;stroke-miterlimit:10;}
</style>
<g>
	<g id="XMLID_1_">
		<g>
			<path class="st0" d="M240.2,222.1v0.4c0,31.5-14.3,57.2-56.2,57.2c-10.4-0.2-21-2.9-30.4-8.4l7.2-6.9l-6-16.7
				c8.4,8.6,18.5,12.7,28.6,12.7c24,0,34.7-12.2,34.7-40.1v-10.4c1.1,0.5,2.2,1.1,3.3,1.6c1,0.5,2.1,1,3.1,1.6
				C229.7,216,234.8,219,240.2,222.1z"/>
			<path class="st0" d="M239.8,111.5v89.8c-1-0.5-2-1.1-3-1.6c-6.2-3.4-12.4-6.7-18.9-9.5l-0.3-60.5h2.5L239.8,111.5z"/>
			<polygon class="st0" points="239.8,106.9 239.8,111.5 220.1,129.8 220.1,110.8 224.5,106.9 			"/>
			<polygon class="st0" points="239.8,92.9 239.8,106.9 224.5,106.9 			"/>
			<path class="st0" d="M224.5,106.9l-4.3,3.9v19h-2.5l0-4.7h-58l7.9-14.7c-0.4-1.2-0.7-2.4-1.1-3.6H224.5z"/>
			<path class="st0" d="M166.4,106.9c0.4,1.2,0.8,2.4,1.1,3.6l-7.9,14.7h-7.4l-3-9.3l4.8-8.9H166.4z"/>
			<path class="st0" d="M166.4,106.9h-12.3l7.7-14.3C163.3,97.4,164.9,102.1,166.4,106.9z"/>
			<path class="st0" d="M154.7,247.6l6,16.7l-7.2,6.9c-2.2-1.3-4.4-2.8-6.4-4.4l-7.8-21l7.8-7.6C149.5,241.8,152,244.9,154.7,247.6z
				"/>
			<polygon class="st0" points="159.7,125.1 155,133.7 152.3,125.1 			"/>
			<path class="st0" d="M147.9,228.9l6.8,18.7c-2.7-2.7-5.2-5.8-7.5-9.4l-7.8,7.6l-2.5-6.9L147.9,228.9z"/>
			<polygon class="st0" points="154.1,106.9 149.3,115.8 152.3,125.1 147.2,125.1 147.2,106.9 			"/>
			<path class="st0" d="M153.6,271.2l-3.5,3.4l-2.9-7.9C149.2,268.4,151.4,269.9,153.6,271.2z"/>
			<path class="st0" d="M139.3,245.8l7.8,21c-5.2-4-9.8-9.2-13.6-15.4L139.3,245.8z"/>
		</g>
		<g>
		</g>
	</g>
</g>
<g class="st1">
	<g>
		<path class="st2" d="M268.8,228.9c-26.1-11.8-51.5-25.8-80.5-31.5c-12.2-2.1-8.6-20,3.6-17.9c30.4,6.1,57.2,20.7,85.1,32.9
			c0.7,0.4,1.8,1.1,2.5,1.8L281,86.5H108.5L106,398.1h172.4l1.8-171C277,229.6,273.4,231,268.8,228.9z"/>
		<path class="st0" d="M220.1,187.4c7.9,2.5,15.7,6.1,23.3,9.3l0.7-96.2H145v18.6h75.5L220.1,187.4z"/>
		<path class="st0" d="M219.8,206.7v9.7c-0.4,28.6-12.2,40.8-37.6,40.8c-14.3,0-28.3-7.2-38.6-22.5l-14.7,13.2
			c12.2,19.7,33.6,28.6,53.7,28.6c44.7,0,60.5-26.5,60.5-58.3v-1.1C235.2,213.1,227.7,209.9,219.8,206.7z"/>
	</g>
	<polyline class="st0" points="144.7,224.9 158.3,261.1 146.5,271.4 132.9,235 	"/>
	<path class="st0" d="M166.5,104.4c-2.1-6.1-3.9-12.2-6.1-18.2l-13.6,23.6l6.1,18.2L166.5,104.4z"/>
	<polyline class="st0" points="244.1,85.8 223,104.4 222.7,123.7 244.1,105.1 	"/>
</g>
<circle class="st3" cx="190" cy="188.3" r="173.8"/>
</svg>
