<?xml version="1.0" encoding="utf-8"?>
<!-- Generator: Adobe Illustrator 25.0.0, SVG Export Plug-In . SVG Version: 6.00 Build 0)  -->
<svg version="1.1" id="Calque_1" xmlns="http://www.w3.org/2000/svg" xmlns:xlink="http://www.w3.org/1999/xlink" x="0px" y="0px"
	 viewBox="0 0 1024 512" style="enable-background:new 0 0 1024 512;" xml:space="preserve">
<style type="text/css">
	.st0{fill:none;}
	.st1{fill:#EF7814;}
	.st2{opacity:0.5;}
</style>
<g>
	<g>
		<path class="st0" d="M472,250.3c-6.6-3.8-12.9-8.2-20.3-10.4c-3.1-0.9-1.8-5.7,1.3-4.8c7.7,2.3,14.4,6.8,21.4,10.8v-36h-45.2v85.5
			h45.2v-45.1C473.7,250.8,472.9,250.8,472,250.3z"/>
		<path class="st1" d="M458.7,242.7v2.9c0,7.8-3,11.2-9.7,11.2c-3.7,0-7.4-2-10.1-6.2l-3.8,3.7c3.3,5.4,8.8,7.8,14.1,7.9
			c11.7,0,15.7-7.2,15.7-16v-0.1C462.8,244.9,460.8,243.7,458.7,242.7z"/>
		<path class="st1" d="M458.7,237.2c2.1,0.9,4.1,2,6.1,3.1v-26.4h-25.9v5.1h19.7V237.2z"/>
	</g>
	<polyline class="st1" points="439.1,248 442.7,257.9 439.7,260.8 436,250.8 	"/>
	<path class="st1" d="M444.6,214.9c-0.5-1.7-1.1-3.3-1.6-5l-3.5,6.5l1.6,5L444.6,214.9z"/>
	<polyline class="st1" points="464.8,210 459.3,215 459.3,220.3 464.8,215.2 	"/>
</g>
<g class="st2">
	<g>
		<path class="st0" d="M472,250.3c-6.6-3.8-12.9-8.2-20.3-10.4c-3.1-0.9-1.8-5.7,1.3-4.8c7.8,2.3,14.5,6.9,21.5,10.9
			c0.2,0.1,0.4,0.3,0.6,0.5l3-34.9l-45-3.8l-7.2,85.2l45,3.8l4-46.7C474.1,250.7,473.1,251,472,250.3z"/>
		<path class="st1" d="M460.1,237.9c2,0.9,4,2,5.9,3.1l2.2-26.3l-25.8-2.2l-0.4,5.1l19.7,1.7L460.1,237.9z"/>
		<path class="st1" d="M459.6,243.2l-0.2,2.6c-0.7,7.8-4,10.9-10.6,10.3c-3.7-0.3-7.2-2.6-9.6-7l-4.1,3.3c2.8,5.7,8.2,8.6,13.4,9
			c11.7,1,16.3-5.9,17-14.6l0-0.3C463.5,245.3,461.6,244.2,459.6,243.2z"/>
	</g>
	<polyline class="st1" points="439.7,246.5 442.5,256.7 439.2,259.3 436.4,249 	"/>
	<path class="st1" d="M447.9,214c-0.4-1.7-0.8-3.4-1.2-5.1l-4,6.2l1.2,5.1L447.9,214z"/>
	<polyline class="st1" points="468.5,210.7 462.6,215.3 462.1,220.6 468.1,215.9 	"/>
</g>
</svg>
