<?xml version="1.0" encoding="utf-8"?>
<!-- Generator: Adobe Illustrator 25.0.0, SVG Export Plug-In . SVG Version: 6.00 Build 0)  -->
<svg version="1.1" id="Calque_1" xmlns="http://www.w3.org/2000/svg" xmlns:xlink="http://www.w3.org/1999/xlink" x="0px" y="0px"
	 viewBox="0 0 1024 512" style="enable-background:new 0 0 1024 512;" xml:space="preserve">
<style type="text/css">
	.st0{fill:none;}
	.st1{fill:#EF7814;}
	.st2{fill:#FFFFFF;}
</style>
<g>
	<rect x="439" y="213.26" class="st0" width="45.16" height="85.48"/>
	<path class="st1" d="M444.76,257.54l3.82-3.67c2.74,4.18,6.48,6.19,10.15,6.19c6.7,0,9.72-3.38,9.72-11.16v-26.57h-19.73v-5.11
		h25.85v32.19c0,8.78-3.96,15.99-15.7,15.99C453.61,265.38,448.07,262.94,444.76,257.54z"/>
</g>
<polyline class="st1" points="448.84,251.3 452.52,261.23 449.43,264.1 445.81,254.11 "/>
<path class="st1" d="M454.35,218.23c-0.53-1.66-1.06-3.31-1.59-4.97l-3.5,6.47l1.59,4.97L454.35,218.23z"/>
<polyline class="st2" points="465.23,236.39 478.03,242.79 478.03,249.46 465.23,242.93 "/>
<polyline class="st1" points="474.56,213.25 469.05,218.34 469.05,223.64 474.56,218.45 "/>
<g>
</g>
<g>
</g>
<g>
</g>
<g>
</g>
<g>
</g>
<g>
</g>
</svg>
